<svg width="0" height="0" class="hidden">
  <symbol xmlns="http://www.w3.org/2000/svg"  viewBox="0 0 24 24" id="add">
    <path d="M0 0h24v24H0V0z" fill="none"></path>
    <path d="M18 13h-5v5c0 .55-.45 1-1 1s-1-.45-1-1v-5H6c-.55 0-1-.45-1-1s.45-1 1-1h5V6c0-.55.45-1 1-1s1 .45 1 1v5h5c.55 0 1 .45 1 1s-.45 1-1 1z"></path>
  </symbol>
  <symbol xmlns="http://www.w3.org/2000/svg"  viewBox="0 0 24 24" id="arrow_back">
    <path d="M0 0h24v24H0V0z" fill="none"></path>
    <path d="M19 11H7.83l4.88-4.88c.39-.39.39-1.03 0-1.42-.39-.39-1.02-.39-1.41 0l-6.59 6.59c-.39.39-.39 1.02 0 1.41l6.59 6.59c.39.39 1.02.39 1.41 0 .39-.39.39-1.02 0-1.41L7.83 13H19c.55 0 1-.45 1-1s-.45-1-1-1z"></path>
  </symbol>
  <symbol xmlns="http://www.w3.org/2000/svg"  viewBox="0 0 24 24" id="close">
    <path d="M0 0h24v24H0V0z" fill="none"></path>
    <path d="M18.3 5.71c-.39-.39-1.02-.39-1.41 0L12 10.59 7.11 5.7c-.39-.39-1.02-.39-1.41 0-.39.39-.39 1.02 0 1.41L10.59 12 5.7 16.89c-.39.39-.39 1.02 0 1.41.39.39 1.02.39 1.41 0L12 13.41l4.89 4.89c.39.39 1.02.39 1.41 0 .39-.39.39-1.02 0-1.41L13.41 12l4.89-4.89c.38-.38.38-1.02 0-1.4z"></path>
  </symbol>
  <symbol xmlns="http://www.w3.org/2000/svg"  viewBox="0 0 24 24" id="dashboard">
    <path d="M0 0h24v24H0V0z" fill="none"></path>
    <path d="M4 13h6c.55 0 1-.45 1-1V4c0-.55-.45-1-1-1H4c-.55 0-1 .45-1 1v8c0 .55.45 1 1 1zm0 8h6c.55 0 1-.45 1-1v-4c0-.55-.45-1-1-1H4c-.55 0-1 .45-1 1v4c0 .55.45 1 1 1zm10 0h6c.55 0 1-.45 1-1v-8c0-.55-.45-1-1-1h-6c-.55 0-1 .45-1 1v8c0 .55.45 1 1 1zM13 4v4c0 .55.45 1 1 1h6c.55 0 1-.45 1-1V4c0-.55-.45-1-1-1h-6c-.55 0-1 .45-1 1z"></path>
  </symbol>
  <symbol xmlns="http://www.w3.org/2000/svg"  viewBox="0 0 24 24" id="delete">
    <path d="M0 0h24v24H0V0z" fill="none"></path>
    <path d="M6 19c0 1.1.9 2 2 2h8c1.1 0 2-.9 2-2V9c0-1.1-.9-2-2-2H8c-1.1 0-2 .9-2 2v10zM18 4h-2.5l-.71-.71c-.18-.18-.44-.29-.7-.29H9.91c-.26 0-.52.11-.7.29L8.5 4H6c-.55 0-1 .45-1 1s.45 1 1 1h12c.55 0 1-.45 1-1s-.45-1-1-1z"></path>
  </symbol>
  <symbol xmlns="http://www.w3.org/2000/svg"  viewBox="0 0 24 24" id="document">
    <path d="M0 0h24v24H0V0z" fill="none"></path>
    <path d="M14.59 2.59c-.38-.38-.89-.59-1.42-.59H6c-1.1 0-2 .9-2 2v16c0 1.1.89 2 1.99 2H18c1.1 0 2-.9 2-2V8.83c0-.53-.21-1.04-.59-1.41l-4.82-4.83zM15 18H9c-.55 0-1-.45-1-1s.45-1 1-1h6c.55 0 1 .45 1 1s-.45 1-1 1zm0-4H9c-.55 0-1-.45-1-1s.45-1 1-1h6c.55 0 1 .45 1 1s-.45 1-1 1zm-2-6V3.5L18.5 9H14c-.55 0-1-.45-1-1z"></path>
  </symbol>
  <symbol xmlns="http://www.w3.org/2000/svg"  viewBox="0 0 24 24" id="edit">
    <path d="M0 0h24v24H0V0z" fill="none"></path>
    <path d="M3 17.46v3.04c0 .28.22.5.5.5h3.04c.13 0 .26-.05.35-.15L17.81 9.94l-3.75-3.75L3.15 17.1c-.1.1-.15.22-.15.36zM20.71 7.04c.39-.39.39-1.02 0-1.41l-2.34-2.34c-.39-.39-1.02-.39-1.41 0l-1.83 1.83 3.75 3.75 1.83-1.83z"></path>
  </symbol>
  <symbol xmlns="http://www.w3.org/2000/svg"  viewBox="0 0 24 24" id="error">
    <path d="M12 2C6.48 2 2 6.48 2 12s4.48 10 10 10 10-4.48 10-10S17.52 2 12 2zm0 11c-.55 0-1-.45-1-1V8c0-.55.45-1 1-1s1 .45 1 1v4c0 .55-.45 1-1 1zm1 4h-2v-2h2v2z"></path>
  </symbol>
  <symbol xmlns="http://www.w3.org/2000/svg"  viewBox="0 0 24 24" id="euro">
    <path d="M0 0h24v24H0V0z" fill="none"></path>
    <path d="M15 18.5c-2.51 0-4.68-1.42-5.76-3.5H14c.55 0 1-.45 1-1s-.45-1-1-1H8.58c-.05-.33-.08-.66-.08-1s.03-.67.08-1H14c.55 0 1-.45 1-1s-.45-1-1-1H9.24C10.32 6.92 12.5 5.5 15 5.5c1.25 0 2.42.36 3.42.97.5.31 1.15.26 1.57-.16.58-.58.45-1.53-.25-1.96C18.36 3.5 16.73 3 15 3c-3.92 0-7.24 2.51-8.48 6H4c-.55 0-1 .45-1 1s.45 1 1 1h2.06c-.04.33-.06.66-.06 1s.02.67.06 1H4c-.55 0-1 .45-1 1s.45 1 1 1h2.52c1.24 3.49 4.56 6 8.48 6 1.74 0 3.36-.49 4.74-1.35.69-.43.82-1.39.24-1.97-.42-.42-1.07-.47-1.57-.15-.99.62-2.15.97-3.41.97z"></path>
  </symbol>
  <symbol xmlns="http://www.w3.org/2000/svg"  viewBox="0 0 24 24" id="more_vert">
    <path d="M0 0h24v24H0V0z" fill="none"></path>
    <path d="M12 8c1.1 0 2-.9 2-2s-.9-2-2-2-2 .9-2 2 .9 2 2 2zm0 2c-1.1 0-2 .9-2 2s.9 2 2 2 2-.9 2-2-.9-2-2-2zm0 6c-1.1 0-2 .9-2 2s.9 2 2 2 2-.9 2-2-.9-2-2-2z"></path>
  </symbol>
  <symbol xmlns="http://www.w3.org/2000/svg"  viewBox="0 0 24 24" id="print">
    <path d="M0 0h24v24H0V0z" fill="none"></path>
    <path d="M19 8H5c-1.66 0-3 1.34-3 3v4c0 1.1.9 2 2 2h2v2c0 1.1.9 2 2 2h8c1.1 0 2-.9 2-2v-2h2c1.1 0 2-.9 2-2v-4c0-1.66-1.34-3-3-3zm-4 11H9c-.55 0-1-.45-1-1v-4h8v4c0 .55-.45 1-1 1zm4-7c-.55 0-1-.45-1-1s.45-1 1-1 1 .45 1 1-.45 1-1 1zm-2-9H7c-.55 0-1 .45-1 1v2c0 .55.45 1 1 1h10c.55 0 1-.45 1-1V4c0-.55-.45-1-1-1z"></path>
  </symbol>
  <symbol xmlns="http://www.w3.org/2000/svg"  viewBox="0 0 24 24" id="search">
    <path d="M0 0h24v24H0V0z" fill="none"></path>
    <path d="M15.5 14h-.79l-.28-.27c1.2-1.4 1.82-3.31 1.48-5.34-.47-2.78-2.79-5-5.59-5.34-4.23-.52-7.79 3.04-7.27 7.27.34 2.8 2.56 5.12 5.34 5.59 2.03.34 3.94-.28 5.34-1.48l.27.28v.79l4.25 4.25c.41.41 1.08.41 1.49 0 .41-.41.41-1.08 0-1.49L15.5 14zm-6 0C7.01 14 5 11.99 5 9.5S7.01 5 9.5 5 14 7.01 14 9.5 11.99 14 9.5 14z"></path>
  </symbol>
  <symbol xmlns="http://www.w3.org/2000/svg" enable-background="new 0 0 24 24"  viewBox="0 0 24 24" id="sell">
    <g>
      <path d="M0,0h24v24H0V0z" fill="none"></path>
    </g>
    <g>
      <path d="M21.41,11.41l-8.83-8.83C12.21,2.21,11.7,2,11.17,2H4C2.9,2,2,2.9,2,4v7.17c0,0.53,0.21,1.04,0.59,1.41l8.83,8.83 c0.78,0.78,2.05,0.78,2.83,0l7.17-7.17C22.2,13.46,22.2,12.2,21.41,11.41z M6.5,8C5.67,8,5,7.33,5,6.5S5.67,5,6.5,5S8,5.67,8,6.5 S7.33,8,6.5,8z"></path>
    </g>
  </symbol>
  <symbol xmlns="http://www.w3.org/2000/svg" enable-background="new 0 0 24 24"  viewBox="0 0 24 24" id="setting">
    <rect fill="none" height="24" width="24"></rect>
    <path d="M19.5,12c0-0.23-0.01-0.45-0.03-0.68l1.86-1.41c0.4-0.3,0.51-0.86,0.26-1.3l-1.87-3.23c-0.25-0.44-0.79-0.62-1.25-0.42 l-2.15,0.91c-0.37-0.26-0.76-0.49-1.17-0.68l-0.29-2.31C14.8,2.38,14.37,2,13.87,2h-3.73C9.63,2,9.2,2.38,9.14,2.88L8.85,5.19 c-0.41,0.19-0.8,0.42-1.17,0.68L5.53,4.96c-0.46-0.2-1-0.02-1.25,0.42L2.41,8.62c-0.25,0.44-0.14,0.99,0.26,1.3l1.86,1.41 C4.51,11.55,4.5,11.77,4.5,12s0.01,0.45,0.03,0.68l-1.86,1.41c-0.4,0.3-0.51,0.86-0.26,1.3l1.87,3.23c0.25,0.44,0.79,0.62,1.25,0.42 l2.15-0.91c0.37,0.26,0.76,0.49,1.17,0.68l0.29,2.31C9.2,21.62,9.63,22,10.13,22h3.73c0.5,0,0.93-0.38,0.99-0.88l0.29-2.31 c0.41-0.19,0.8-0.42,1.17-0.68l2.15,0.91c0.46,0.2,1,0.02,1.25-0.42l1.87-3.23c0.25-0.44,0.14-0.99-0.26-1.3l-1.86-1.41 C19.49,12.45,19.5,12.23,19.5,12z M12.04,15.5c-1.93,0-3.5-1.57-3.5-3.5s1.57-3.5,3.5-3.5s3.5,1.57,3.5,3.5S13.97,15.5,12.04,15.5z"></path>
  </symbol>
  <symbol xmlns="http://www.w3.org/2000/svg"  viewBox="0 0 24 24" id="success">
    <path d="M0 0h24v24H0V0z" fill="none"></path>
    <path d="M12 2C6.48 2 2 6.48 2 12s4.48 10 10 10 10-4.48 10-10S17.52 2 12 2zM9.29 16.29 5.7 12.7c-.39-.39-.39-1.02 0-1.41.39-.39 1.02-.39 1.41 0L10 14.17l6.88-6.88c.39-.39 1.02-.39 1.41 0 .39.39.39 1.02 0 1.41l-7.59 7.59c-.38.39-1.02.39-1.41 0z"></path>
  </symbol>
  <symbol xmlns="http://www.w3.org/2000/svg"  viewBox="0 0 24 24" id="visibility">
    <path d="M0 0h24v24H0V0z" fill="none"></path>
    <path d="M12 4C7 4 2.73 7.11 1 11.5 2.73 15.89 7 19 12 19s9.27-3.11 11-7.5C21.27 7.11 17 4 12 4zm0 12.5c-2.76 0-5-2.24-5-5s2.24-5 5-5 5 2.24 5 5-2.24 5-5 5zm0-8c-1.66 0-3 1.34-3 3s1.34 3 3 3 3-1.34 3-3-1.34-3-3-3z"></path>
  </symbol>
  <symbol xmlns="http://www.w3.org/2000/svg"  viewBox="0 0 24 24" id="visibility_off">
    <path d="M0 0h24v24H0V0zm0 0h24v24H0V0zm0 0h24v24H0V0zm0 0h24v24H0V0z" fill="none"></path>
    <path d="M12 6.5c2.76 0 5 2.24 5 5 0 .51-.1 1-.24 1.46l3.06 3.06c1.39-1.23 2.49-2.77 3.18-4.53C21.27 7.11 17 4 12 4c-1.27 0-2.49.2-3.64.57l2.17 2.17c.47-.14.96-.24 1.47-.24zM2.71 3.16c-.39.39-.39 1.02 0 1.41l1.97 1.97C3.06 7.83 1.77 9.53 1 11.5 2.73 15.89 7 19 12 19c1.52 0 2.97-.3 4.31-.82l2.72 2.72c.39.39 1.02.39 1.41 0 .39-.39.39-1.02 0-1.41L4.13 3.16c-.39-.39-1.03-.39-1.42 0zM12 16.5c-2.76 0-5-2.24-5-5 0-.77.18-1.5.49-2.14l1.57 1.57c-.03.18-.06.37-.06.57 0 1.66 1.34 3 3 3 .2 0 .38-.03.57-.07L14.14 16c-.65.32-1.37.5-2.14.5zm2.97-5.33c-.15-1.4-1.25-2.49-2.64-2.64l2.64 2.64z"></path>
  </symbol>
  <symbol xmlns="http://www.w3.org/2000/svg"  viewBox="0 0 24 24" id="warning">
    <path d="M4.47 21h15.06c1.54 0 2.5-1.67 1.73-3L13.73 4.99c-.77-1.33-2.69-1.33-3.46 0L2.74 18c-.77 1.33.19 3 1.73 3zM12 14c-.55 0-1-.45-1-1v-2c0-.55.45-1 1-1s1 .45 1 1v2c0 .55-.45 1-1 1zm1 4h-2v-2h2v2z"></path>
  </symbol>
</svg>